<svg width="16" height="16" viewBox="0 0 16 16" fill="none" xmlns="http://www.w3.org/2000/svg">
<g clip-path="url(#clip0_20579_85432)">
<path d="M8.00016 14.6666C4.32073 14.6666 1.3335 11.6794 1.3335 7.99998C1.3335 4.32055 4.32073 1.33331 8.00016 1.33331C11.6821 1.33331 14.6668 4.0196 14.6668 7.33331C14.6668 9.17426 13.1744 10.6666 11.3335 10.6666H9.8335C9.3916 10.6666 8.98762 10.9163 8.79 11.3116C8.59237 11.7068 8.63502 12.1798 8.90016 12.5333L9.10016 12.8C9.3653 13.1535 9.40795 13.6265 9.21033 14.0217C9.0127 14.417 8.60873 14.6666 8.16683 14.6666H8.00016" stroke="#7C3AED" stroke-width="1.33333" stroke-linecap="round" stroke-linejoin="round"/>
<path d="M8.6665 4.33333C8.6665 4.51731 8.81587 4.66667 8.99984 4.66667C9.18381 4.66667 9.33317 4.51731 9.33317 4.33333C9.33317 4.14936 9.18381 4 8.99984 4C8.81587 4 8.6665 4.14936 8.6665 4.33333Z" fill="#7C3AED"/>
<path d="M8.6665 4.33333C8.6665 4.51731 8.81587 4.66667 8.99984 4.66667C9.18381 4.66667 9.33317 4.51731 9.33317 4.33333C9.33317 4.14936 9.18381 4 8.99984 4C8.81587 4 8.6665 4.14936 8.6665 4.33333V4.33333" stroke="#7C3AED" stroke-width="1.33333" stroke-linecap="round" stroke-linejoin="round"/>
<path d="M11.3335 7.00002C11.3335 7.18399 11.4829 7.33335 11.6668 7.33335C11.8508 7.33335 12.0002 7.18399 12.0002 7.00002C12.0002 6.81605 11.8508 6.66669 11.6668 6.66669C11.4829 6.66669 11.3335 6.81605 11.3335 7.00002Z" fill="#7C3AED"/>
<path d="M11.3335 7.00002C11.3335 7.18399 11.4829 7.33335 11.6668 7.33335C11.8508 7.33335 12.0002 7.18399 12.0002 7.00002C12.0002 6.81605 11.8508 6.66669 11.6668 6.66669C11.4829 6.66669 11.3335 6.81605 11.3335 7.00002V7.00002" stroke="#7C3AED" stroke-width="1.33333" stroke-linecap="round" stroke-linejoin="round"/>
<path d="M4 8.33333C4 8.51731 4.14936 8.66667 4.33333 8.66667C4.51731 8.66667 4.66667 8.51731 4.66667 8.33333C4.66667 8.14936 4.51731 8 4.33333 8C4.14936 8 4 8.14936 4 8.33333Z" fill="#7C3AED"/>
<path d="M4 8.33333C4 8.51731 4.14936 8.66667 4.33333 8.66667C4.51731 8.66667 4.66667 8.51731 4.66667 8.33333C4.66667 8.14936 4.51731 8 4.33333 8C4.14936 8 4 8.14936 4 8.33333V8.33333" stroke="#7C3AED" stroke-width="1.33333" stroke-linecap="round" stroke-linejoin="round"/>
<path d="M5.3335 5.00002C5.3335 5.18399 5.48286 5.33335 5.66683 5.33335C5.8508 5.33335 6.00016 5.18399 6.00016 5.00002C6.00016 4.81605 5.8508 4.66669 5.66683 4.66669C5.48286 4.66669 5.3335 4.81605 5.3335 5.00002Z" fill="#7C3AED"/>
<path d="M5.3335 5.00002C5.3335 5.18399 5.48286 5.33335 5.66683 5.33335C5.8508 5.33335 6.00016 5.18399 6.00016 5.00002C6.00016 4.81605 5.8508 4.66669 5.66683 4.66669C5.48286 4.66669 5.3335 4.81605 5.3335 5.00002V5.00002" stroke="#7C3AED" stroke-width="1.33333" stroke-linecap="round" stroke-linejoin="round"/>
</g>
<defs>
<clipPath id="clip0_20579_85432">
<rect width="16" height="16" fill="white"/>
</clipPath>
</defs>
</svg>
