<svg width="16" height="16" viewBox="0 0 16 16" fill="none" xmlns="http://www.w3.org/2000/svg">
<path d="M10 4C6.68851 4 4 6.68851 4 10V2" stroke="#7C3AED" stroke-width="1.33333" stroke-linecap="round" stroke-linejoin="round"/>
<path d="M10 4C10 5.10383 10.8962 6 12 6C13.1038 6 14 5.10383 14 4C14 2.89617 13.1038 2 12 2C10.8962 2 10 2.89617 10 4V4" stroke="#7C3AED" stroke-width="1.33333" stroke-linecap="round" stroke-linejoin="round"/>
<path d="M2 12C2 13.1038 2.89617 14 4 14C5.10383 14 6 13.1038 6 12C6 10.8962 5.10383 10 4 10C2.89617 10 2 10.8962 2 12H2" stroke="#7C3AED" stroke-width="1.33333" stroke-linecap="round" stroke-linejoin="round"/>
</svg>
