<svg width="16" height="16" viewBox="0 0 16 16" fill="none" xmlns="http://www.w3.org/2000/svg">
<g clip-path="url(#clip0_20579_85449)">
<path d="M9.79999 4.20003C9.54589 4.45926 9.54589 4.87413 9.79999 5.13336L10.8667 6.20003C11.1259 6.45412 11.5408 6.45412 11.8 6.20003L13.8707 4.13003C14.084 3.91536 14.446 3.98336 14.526 4.27536C14.9372 5.77088 14.4468 7.36929 13.2676 8.37685C12.0884 9.38442 10.433 9.61948 9.01999 8.98003L3.74665 14.2534C3.19437 14.8055 2.29909 14.8053 1.74699 14.253C1.19489 13.7007 1.19503 12.8055 1.74732 12.2534L7.02065 6.98003C6.3812 5.56697 6.61626 3.91161 7.62383 2.73244C8.63139 1.55326 10.2298 1.06284 11.7253 1.47403C12.0173 1.55403 12.0853 1.91536 11.8713 2.13003L9.79999 4.20003" stroke="#7C3AED" stroke-width="1.33333" stroke-linecap="round" stroke-linejoin="round"/>
</g>
<defs>
<clipPath id="clip0_20579_85449">
<rect width="16" height="16" fill="white"/>
</clipPath>
</defs>
</svg>
