<svg width="14" height="14" viewBox="0 0 14 14" fill="none" xmlns="http://www.w3.org/2000/svg">
<path d="M4.08333 0.75H2.08333C1.72971 0.75 1.39057 0.890476 1.14052 1.14052C0.890476 1.39057 0.75 1.72971 0.75 2.08333V4.08333" stroke="#2C184B" stroke-width="1.5" stroke-linecap="round" stroke-linejoin="round"/>
<path d="M12.7498 4.08333V2.08333C12.7498 1.72971 12.6094 1.39057 12.3593 1.14052C12.1093 0.890476 11.7701 0.75 11.4165 0.75H9.4165" stroke="#2C184B" stroke-width="1.5" stroke-linecap="round" stroke-linejoin="round"/>
<path d="M0.75 9.41667V11.4167C0.75 11.7703 0.890476 12.1094 1.14052 12.3595C1.39057 12.6095 1.72971 12.75 2.08333 12.75H4.08333" stroke="#2C184B" stroke-width="1.5" stroke-linecap="round" stroke-linejoin="round"/>
<path d="M9.4165 12.75H11.4165C11.7701 12.75 12.1093 12.6095 12.3593 12.3595C12.6094 12.1094 12.7498 11.7703 12.7498 11.4167V9.41667" stroke="#2C184B" stroke-width="1.5" stroke-linecap="round" stroke-linejoin="round"/>
</svg>
