<svg width="20" height="20" viewBox="0 0 20 20" fill="none" xmlns="http://www.w3.org/2000/svg">
<path d="M5.00008 15H3.33341C2.41294 15 1.66675 14.2538 1.66675 13.3334V9.16669C1.66675 8.24621 2.41294 7.50002 3.33341 7.50002H16.6667C17.5872 7.50002 18.3334 8.24621 18.3334 9.16669V13.3334C18.3334 14.2538 17.5872 15 16.6667 15H15.0001M5.00008 7.50002V2.50002C5.00008 2.03978 5.37318 1.66669 5.83341 1.66669H14.1667C14.627 1.66669 15.0001 2.03978 15.0001 2.50002V7.50002" stroke="#7C3AED" stroke-width="1.66667" stroke-linecap="round" stroke-linejoin="round"/>
<path d="M5.83333 11.6667H14.1667C14.6269 11.6667 15 12.0398 15 12.5V17.5C15 17.9603 14.6269 18.3334 14.1667 18.3334H5.83333C5.3731 18.3334 5 17.9603 5 17.5V12.5C5 12.0398 5.3731 11.6667 5.83333 11.6667V11.6667" stroke="#7C3AED" stroke-width="1.66667" stroke-linecap="round" stroke-linejoin="round"/>
</svg>
