<svg width="24" height="24" viewBox="0 0 24 24" fill="none" xmlns="http://www.w3.org/2000/svg">
<path d="M6 18H4C2.89617 18 2 17.1038 2 16V11C2 9.89617 2.89617 9 4 9H20C21.1038 9 22 9.89617 22 11V16C22 17.1038 21.1038 18 20 18H18M6 9V3C6 2.44808 6.44808 2 7 2H17C17.5519 2 18 2.44808 18 3V9" stroke="#7C3AED" stroke-width="2" stroke-linecap="round" stroke-linejoin="round"/>
<path d="M7 14H17C17.5519 14 18 14.4481 18 15V21C18 21.5519 17.5519 22 17 22H7C6.44808 22 6 21.5519 6 21V15C6 14.4481 6.44808 14 7 14V14" stroke="#7C3AED" stroke-width="2" stroke-linecap="round" stroke-linejoin="round"/>
</svg>
