<svg width="16" height="16" viewBox="0 0 16 16" fill="none" xmlns="http://www.w3.org/2000/svg">
<path d="M6.44743 2.75733C6.52355 1.95656 7.19605 1.34495 8.00043 1.34495C8.80481 1.34495 9.47731 1.95656 9.55343 2.75733C9.59824 3.26396 9.8872 3.71693 10.3277 3.97111C10.7683 4.2253 11.3051 4.24876 11.7661 4.034C12.4969 3.70219 13.3603 3.97909 13.7618 4.67407C14.1633 5.36905 13.9719 6.25527 13.3194 6.72266C12.9032 7.0147 12.6555 7.49123 12.6555 7.99966C12.6555 8.5081 12.9032 8.98463 13.3194 9.27666C13.9719 9.74406 14.1633 10.6303 13.7618 11.3253C13.3603 12.0202 12.4969 12.2971 11.7661 11.9653C11.3051 11.7506 10.7683 11.774 10.3277 12.0282C9.8872 12.2824 9.59824 12.7354 9.55343 13.242C9.47731 14.0428 8.80481 14.6544 8.00043 14.6544C7.19605 14.6544 6.52355 14.0428 6.44743 13.242C6.4027 12.7352 6.11364 12.282 5.67292 12.0278C5.2322 11.7736 4.6952 11.7503 4.2341 11.9653C3.50326 12.2971 2.63993 12.0202 2.23842 11.3253C1.83691 10.6303 2.02826 9.74406 2.68076 9.27666C3.09696 8.98463 3.34473 8.5081 3.34473 7.99966C3.34473 7.49123 3.09696 7.0147 2.68076 6.72266C2.02922 6.25506 1.83836 5.36963 2.23942 4.67514C2.64048 3.98065 3.50277 3.70339 4.23343 4.034C4.69447 4.24876 5.23125 4.2253 5.67179 3.97111C6.11232 3.71693 6.40129 3.26396 6.4461 2.75733" stroke="#066C49" stroke-width="1.33333" stroke-linecap="round" stroke-linejoin="round"/>
<path d="M6 8C6 9.10383 6.89617 10 8 10C9.10383 10 10 9.10383 10 8C10 6.89617 9.10383 6 8 6C6.89617 6 6 6.89617 6 8V8" stroke="#066C49" stroke-width="1.33333" stroke-linecap="round" stroke-linejoin="round"/>
</svg>
